<?xml version="1.0" encoding="iso-8859-1"?>
<!-- Generator: Adobe Illustrator 19.0.0, SVG Export Plug-In . SVG Version: 6.00 Build 0)  -->
<svg version="1.1" id="Layer_1" xmlns="http://www.w3.org/2000/svg" xmlns:xlink="http://www.w3.org/1999/xlink" x="0px" y="0px"
	 viewBox="0 0 512.004 512.004" style="enable-background:new 0 0 512.004 512.004;" xml:space="preserve">
<rect x="237.159" y="209.657" style="fill:#EEBF00;" width="38.446" height="73.467"/>
<g style="opacity:0.39;">
	<rect x="237.159" y="209.657" style="fill:#664400;" width="38.446" height="28.185"/>
</g>
<circle style="fill:#CCA400;" cx="256.383" cy="110.723" r="110.723"/>
<circle style="fill:#EEBF00;" cx="256.383" cy="110.723" r="82.452"/>
<polygon style="fill:#FFDA44;" points="275.544,77.51 294.719,110.723 275.544,143.936 237.194,143.936 218.019,110.723 
	237.194,77.51 "/>
<g style="opacity:0.37;">
	<path style="fill:#664400;" d="M237.024,143.936l-22.044,38.183c12.131,7.021,26.204,11.06,41.229,11.06
		c15.019,0,29.087-4.036,41.215-11.051l-22.049-38.19h-38.351V143.936z"/>
</g>
<path style="fill:#FFEB99;" d="M275.379,77.51l22.044-38.183c-12.131-7.021-26.204-11.06-41.229-11.06
	c-15.019,0-29.087,4.036-41.215,11.051l22.049,38.19h38.351V77.51z"/>
<g>
	<rect x="160.022" y="268.371" style="fill:#664400;" width="192.711" height="29.526"/>
	<rect x="160.022" y="452.952" style="fill:#664400;" width="192.711" height="29.526"/>
	<rect x="135.241" y="482.478" style="fill:#664400;" width="241.524" height="29.526"/>
</g>
<rect x="178.476" y="297.898" style="fill:#EEBF00;" width="155.054" height="155.054"/>
<rect x="178.476" y="337.969" style="fill:#266659;" width="155.054" height="66.434"/>
<g style="opacity:0.37;">
	<path style="fill:#664400;" d="M297.636,39.345L275.601,77.51l19.175,33.213h44.056C338.832,80.221,322.258,53.608,297.636,39.345z
		"/>
</g>
<path style="fill:#FFE477;" d="M215.12,39.345l22.035,38.166l-19.175,33.213h-44.056C173.924,80.221,190.498,53.608,215.12,39.345z"
	/>
<g style="opacity:0.59;">
	<path style="fill:#664400;" d="M297.636,182.101l-22.035-38.166l19.175-33.213h44.056
		C338.832,141.225,322.258,167.838,297.636,182.101z"/>
</g>
<path style="opacity:0.3;fill:#664400;enable-background:new    ;" d="M318.071,18.77c11.852,17.63,18.77,38.853,18.77,61.694
	c0,61.151-49.572,110.723-110.723,110.723c-22.841,0-44.064-6.919-61.694-18.77c19.88,29.571,53.643,49.029,91.953,49.029
	c61.151,0,110.723-49.572,110.723-110.723C367.102,72.413,347.643,38.649,318.071,18.77z"/>
<g>
	<path style="fill:#56361D;" d="M333.528,268.367v5.209c0,4.876-3.952,8.828-8.828,8.828H160.02v15.489h173.508h19.208v-15.489
		v-14.038H333.528L333.528,268.367z"/>
	<path style="fill:#56361D;" d="M329.518,452.948v3.077c0,6.053-4.908,10.961-10.961,10.961H160.02v15.489h169.498h23.218v-15.489
		v-14.038H329.518z"/>
	<path style="fill:#56361D;" d="M353.545,482.474v3.077c0,6.053-4.908,10.961-10.961,10.961H135.239V512h218.306h23.218v-15.489
		v-14.038H353.545z"/>
</g>
<rect x="284.76" y="297.898" style="opacity:0.21;fill:#664400;enable-background:new    ;" width="48.771" height="155.054"/>
<g>
</g>
<g>
</g>
<g>
</g>
<g>
</g>
<g>
</g>
<g>
</g>
<g>
</g>
<g>
</g>
<g>
</g>
<g>
</g>
<g>
</g>
<g>
</g>
<g>
</g>
<g>
</g>
<g>
</g>
</svg>
